<svg id="visual" viewBox="0 0 960 540" width="960" height="540" xmlns="http://www.w3.org/2000/svg" xmlns:xlink="http://www.w3.org/1999/xlink" version="1.1"><rect x="0" y="0" width="960" height="540" fill="#673ab7"></rect><path d="M0 251L48 251L48 170L96 170L96 227L144 227L144 239L192 239L192 270L240 270L240 188L288 188L288 205L336 205L336 278L384 278L384 261L432 261L432 190L480 190L480 173L528 173L528 245L576 245L576 266L624 266L624 168L672 168L672 269L720 269L720 226L768 226L768 168L816 168L816 173L864 173L864 236L912 236L912 183L960 183L960 185L960 541L960 541L912 541L912 541L864 541L864 541L816 541L816 541L768 541L768 541L720 541L720 541L672 541L672 541L624 541L624 541L576 541L576 541L528 541L528 541L480 541L480 541L432 541L432 541L384 541L384 541L336 541L336 541L288 541L288 541L240 541L240 541L192 541L192 541L144 541L144 541L96 541L96 541L48 541L48 541L0 541Z" fill="#512a94"></path><path d="M0 279L48 279L48 296L96 296L96 325L144 325L144 305L192 305L192 285L240 285L240 286L288 286L288 268L336 268L336 315L384 315L384 238L432 238L432 297L480 297L480 270L528 270L528 238L576 238L576 327L624 327L624 269L672 269L672 271L720 271L720 262L768 262L768 252L816 252L816 235L864 235L864 276L912 276L912 344L960 344L960 305L960 541L960 541L912 541L912 541L864 541L864 541L816 541L816 541L768 541L768 541L720 541L720 541L672 541L672 541L624 541L624 541L576 541L576 541L528 541L528 541L480 541L480 541L432 541L432 541L384 541L384 541L336 541L336 541L288 541L288 541L240 541L240 541L192 541L192 541L144 541L144 541L96 541L96 541L48 541L48 541L0 541Z" fill="#4b268a"></path><path d="M0 402L48 402L48 298L96 298L96 304L144 304L144 379L192 379L192 392L240 392L240 322L288 322L288 367L336 367L336 306L384 306L384 370L432 370L432 351L480 351L480 388L528 388L528 402L576 402L576 366L624 366L624 334L672 334L672 321L720 321L720 305L768 305L768 376L816 376L816 396L864 396L864 295L912 295L912 358L960 358L960 369L960 541L960 541L912 541L912 541L864 541L864 541L816 541L816 541L768 541L768 541L720 541L720 541L672 541L672 541L624 541L624 541L576 541L576 541L528 541L528 541L480 541L480 541L432 541L432 541L384 541L384 541L336 541L336 541L288 541L288 541L240 541L240 541L192 541L192 541L144 541L144 541L96 541L96 541L48 541L48 541L0 541Z" fill="#452381"></path><path d="M0 452L48 452L48 416L96 416L96 413L144 413L144 362L192 362L192 401L240 401L240 389L288 389L288 398L336 398L336 437L384 437L384 383L432 383L432 455L480 455L480 373L528 373L528 390L576 390L576 383L624 383L624 430L672 430L672 434L720 434L720 402L768 402L768 460L816 460L816 357L864 357L864 399L912 399L912 452L960 452L960 442L960 541L960 541L912 541L912 541L864 541L864 541L816 541L816 541L768 541L768 541L720 541L720 541L672 541L672 541L624 541L624 541L576 541L576 541L528 541L528 541L480 541L480 541L432 541L432 541L384 541L384 541L336 541L336 541L288 541L288 541L240 541L240 541L192 541L192 541L144 541L144 541L96 541L96 541L48 541L48 541L0 541Z" fill="#3f1f78"></path><path d="M0 522L48 522L48 497L96 497L96 528L144 528L144 502L192 502L192 432L240 432L240 523L288 523L288 445L336 445L336 478L384 478L384 442L432 442L432 531L480 531L480 471L528 471L528 525L576 525L576 432L624 432L624 422L672 422L672 438L720 438L720 431L768 431L768 424L816 424L816 528L864 528L864 468L912 468L912 494L960 494L960 440L960 541L960 541L912 541L912 541L864 541L864 541L816 541L816 541L768 541L768 541L720 541L720 541L672 541L672 541L624 541L624 541L576 541L576 541L528 541L528 541L480 541L480 541L432 541L432 541L384 541L384 541L336 541L336 541L288 541L288 541L240 541L240 541L192 541L192 541L144 541L144 541L96 541L96 541L48 541L48 541L0 541Z" fill="#3a1c6f"></path></svg>